<?xml version="1.0" encoding="UTF-8"?>
<svg width="103px" height="84px" viewBox="0 0 103 84" version="1.1" xmlns="http://www.w3.org/2000/svg" xmlns:xlink="http://www.w3.org/1999/xlink">
    <!-- Generator: Sketch 41 (35326) - http://www.bohemiancoding.com/sketch -->
    <title>Group-32</title>
    <desc>Created with Sketch.</desc>
    <defs></defs>
    <g id="Page-1" stroke="none" stroke-width="1" fill="none" fill-rule="evenodd" fill-opacity="0.75">
        <g id="Desktop-HD-Copy" transform="translate(-84.000000, -454.000000)" fill="#F8FBFD">
            <g id="Group-32" transform="translate(84.000000, 454.000000)">
                <polygon id="Combined-Shape" points="79.188172 39.2311828 79.188172 34.2631579 73.6505376 34.2631579 73.6505376 39.2311828 68.6825127 39.2311828 68.6825127 44.7688172 73.6505376 44.7688172 73.6505376 49.7368421 79.188172 49.7368421 79.188172 44.7688172 84.1561969 44.7688172 84.1561969 39.2311828"></polygon>
                <polygon id="Combined-Shape" points="98.016129 39.2311828 98.016129 34.2631579 92.4784946 34.2631579 92.4784946 39.2311828 87.5104697 39.2311828 87.5104697 44.7688172 92.4784946 44.7688172 92.4784946 49.7368421 98.016129 49.7368421 98.016129 44.7688172 102.984154 44.7688172 102.984154 39.2311828"></polygon>
                <path d="M60.0478736,31.7635314 L78.534527,20.9876601 C71.2558973,8.44063672 57.6586864,0 42.0860215,0 C18.8425536,0 0,18.8040405 0,42 C0,65.1959595 18.8425536,84 42.0860215,84 C57.5929641,84 71.1410917,75.6304581 78.4420342,63.1709793 L60.1099669,53.2415229 C56.5057469,59.0957934 50.0296379,63 42.6397849,63 C31.3238861,63 22.1505376,53.8454013 22.1505376,42.5526316 C22.1505376,31.2598618 31.3238861,22.1052632 42.6397849,22.1052632 C49.9873927,22.1052632 56.4316738,25.9649594 60.0478736,31.7635314 Z" id="Combined-Shape"></path>
            </g>
        </g>
    </g>
</svg>