<?xml version="1.0" encoding="UTF-8"?>
<svg width="101px" height="114px" viewBox="0 0 101 114" version="1.1" xmlns="http://www.w3.org/2000/svg" xmlns:xlink="http://www.w3.org/1999/xlink">
    <!-- Generator: Sketch 41 (35326) - http://www.bohemiancoding.com/sketch -->
    <title>Group 2</title>
    <desc>Created with Sketch.</desc>
    <defs></defs>
    <g id="Page-1" stroke="none" stroke-width="1" fill="none" fill-rule="evenodd">
        <g id="Desktop-HD-Copy" transform="translate(-205.000000, -740.000000)">
            <g id="Group-2" transform="translate(205.000000, 740.000000)">
                <polygon id="Rectangle" fill="#878C92" points="0 0 101 0 92 102 50.5 114 9 102"></polygon>
                <polygon id="Rectangle-7" fill="#BFC3C7" points="51 9 91.7373075 9 84.3173336 96.1293472 51 105.075491"></polygon>
                <polygon id="Rectangle-8" fill="#DBDFE2" points="37.3496809 73.8632519 37.3496809 21 47.3774223 21 47.3774223 89 18 80.3068134 18 68.5955643"></polygon>
                <polygon id="Rectangle-8" fill="#DBDFE2" points="55 21 87.2052535 21 86.2693684 33.3241893 64.7700907 33.3241893 64.7700907 51.0063701 85.1045608 48.6629395 82.603863 81.5933411 55 89 55 76.5821043 74.6263463 71.2469797 74.6263463 61.5436448 55 65.1728972"></polygon>
            </g>
        </g>
    </g>
</svg>