<?xml version="1.0" encoding="UTF-8"?>
<svg width="114px" height="116px" viewBox="0 0 114 116" version="1.1" xmlns="http://www.w3.org/2000/svg" xmlns:xlink="http://www.w3.org/1999/xlink">
    <!-- Generator: Sketch 41 (35326) - http://www.bohemiancoding.com/sketch -->
    <title>Group-30</title>
    <desc>Created with Sketch.</desc>
    <defs></defs>
    <g id="Page-1" stroke="none" stroke-width="1" fill="none" fill-rule="evenodd">
        <g id="Desktop-HD-Copy" transform="translate(-465.000000, -872.000000)" fill="#F8FBFD">
            <g id="Group-30" transform="translate(465.000000, 872.000000)">
                <path d="M22.9901878,84.9621318 C10.2930577,84.9621318 0,74.6746378 0,61.9602544 L0,52.9269108 C0,40.2233246 10.2985565,29.9250333 22.9958365,29.9250333 L53.2342949,29.9250333 C54.8932023,29.9250333 56.2380125,28.5757039 56.2380125,26.9233472 L56.2380125,28.7350936 C56.2380125,27.0773081 54.8964508,25.7334074 53.2288638,25.7334074 L32.5629409,25.7334074 C30.901034,25.7334074 29.5537923,24.3860995 29.5537923,22.7310955 L29.5537923,17.0032997 C29.5537923,7.6126366 37.1645667,-6.5783247e-17 46.5484935,0 L61.3945631,1.04073984e-16 C74.0963572,1.93116158e-16 84.3931958,10.2968394 84.3931958,22.9957687 L84.3931958,41.6961995 C84.3931958,49.4286098 78.1290198,55.6969668 70.3851358,55.6969668 L41.2025747,55.6969668 C32.3672815,55.6969668 25.204861,62.8560316 25.2048609,71.6995677 L25.2048607,84.9621318 L22.9901878,84.9621318 Z" id="Rectangle-431" fill-opacity="0.502943841"></path>
                <path d="M52.3538238,115.260638 C39.6566937,115.260638 29.363636,104.973144 29.363636,92.2587613 L29.363636,83.2254178 C29.363636,70.5218316 39.6621924,60.2235403 52.3594725,60.2235403 L82.5979309,60.2235403 C84.2568383,60.2235403 85.6016485,58.8742109 85.6016485,57.2218541 L85.6016485,59.0336005 C85.6016485,57.3758151 84.2600868,56.0319144 82.5924998,56.0319144 L61.9265769,56.0319144 C60.26467,56.0319144 58.9174282,54.6846064 58.9174282,53.0296024 L58.9174282,47.3018067 C58.9174282,37.9111436 66.5282026,30.298507 75.9121295,30.298507 L90.758199,30.298507 C103.459994,30.298507 113.756832,40.5953463 113.756832,53.2942757 L113.756832,71.9947064 C113.756832,79.7271167 107.492656,85.9954738 99.7487717,85.9954738 L70.5662107,85.9954738 C61.7309174,85.9954738 54.568497,93.1545385 54.5684969,101.998074 L54.5684967,115.260638 L52.3538238,115.260638 Z" id="Rectangle-431" fill-opacity="0.75" transform="translate(71.560234, 72.779573) scale(-1, -1) translate(-71.560234, -72.779573) "></path>
            </g>
        </g>
    </g>
</svg>